<?xml version="1.0" encoding="UTF-8"?>
<svg id="Layer_1" data-name="Layer 1" xmlns="http://www.w3.org/2000/svg" xmlns:xlink="http://www.w3.org/1999/xlink" viewBox="0 0 47.5 47.5">
  <defs>
    <style>
      .cls-1 {
        fill: #3e721d;
      }

      .cls-2, .cls-3 {
        fill: #386c5c;
      }

      .cls-2, .cls-4 {
        stroke: #fff;
        stroke-miterlimit: 10;
      }

      .cls-5 {
        fill: #ccd6dd;
      }

      .cls-6 {
        clip-path: url(#clippath);
      }

      .cls-7 {
        fill: none;
      }

      .cls-8 {
        fill: #e1e8ed;
      }

      .cls-4 {
        fill: #325e4f;
      }
    </style>
    <clipPath id="clippath">
      <rect class="cls-7" width="47.5" height="47.5"/>
    </clipPath>
  </defs>
  <g class="cls-6">
    <g>
      <path class="cls-1" d="m45,33.75c0,2.76-2.24,5-5,5H7.5c-2.76,0-5-2.24-5-5V9.14c0-2.76,7.24-7.89,10-7.89h25.78c3.87,0,6.72,2.89,6.72,6.72v25.78Z"/>
      <path class="cls-5" d="m42.5,38.75c0,2.76-2.24,5-5,5H10c-2.76,0-5-2.24-5-5V8.75c0-5.15-.03-5,6.25-5h26.25c2.76,0,5,2.24,5,5v30Z"/>
      <path class="cls-8" d="m40,40c0,2.07-1.68,3.75-3.75,3.75H6.25c-2.07,0-3.75-1.68-3.75-3.75V10c0-2.07,1.68-3.75,3.75-3.75h30c2.07,0,3.75,1.68,3.75,3.75v30Z"/>
      <path class="cls-4" d="m40,41.25c0,2.76-2.24,5-5,5H8.75c-2.76,0-5-2.24-5-5V13.75c0-2.76,2.24-5,5-5h26.25c2.76,0,5,2.24,5,5v27.5Z"/>
      <path class="cls-3" d="m37.5,41.25c0,2.76-2.24,5-5,5H8.75c-2.76,0-5-2.24-5-5v-25c0-2.76,2.24-5,5-5h24.17c2.76,0,4.58,1.82,4.58,4.58v25.42Z"/>
      <path class="cls-2" d="m8.75,8.75c-2.11,0-2.16-2.4-1.25-3.44,1.04-1.18,2.66-1.56,5.55-1.56h1.95V1.25h-3.4C6.64,1.25,2.5,4.38,2.5,7.97v33.28c0,2.76,2.24,5,5,5h2.5V8.75h-1.25Z"/>
    </g>
  </g>
</svg>