<?xml version="1.0" encoding="UTF-8"?>
<svg id="Layer_1" data-name="Layer 1" xmlns="http://www.w3.org/2000/svg" viewBox="0 0 14 20">
  <defs>
    <style>
      .cls-1 {
        fill: #386c5c;
        fill-rule: evenodd;
      }
    </style>
  </defs>
  <path class="cls-1" d="m7,0c-1.66,0-3,1.34-3,3v7c0,1.66,1.34,3,3,3s3-1.34,3-3V3c0-1.66-1.34-3-3-3ZM0,10C0,9.45.45,9,1,9s1,.45,1,1c0,2.76,2.24,5,5,5s5-2.24,5-5c0-.55.45-1,1-1s1,.45,1,1c0,3.48-2.56,6.43-6,6.93v2.07c0,.55-.45,1-1,1s-1-.45-1-1v-2.07C2.56,16.43,0,13.48,0,10Z"/>
</svg>